# xmcd
#
# Track frame offsets: 
#        150
#        14704
#        26673
#        37750
#        49828
#        61578
#        71664
#        83734
#        94731
#        105771
#        117914
#        129449
#        142350
#        152762
#        165114
#        180216
#        192138
#        205972
#
# Disc length: 2919 seconds
#
# Revision: 1
# Processed by: cddbd v1.5.2PL0 Copyright (c) Steve Scherf et al.
# Submitted via: ExactAudioCopy v1.1
#
DISCID=e10b6512
DTITLE=Tony Clarke - The Rare And The Rest
DYEAR=1997
DGENRE=R&B
TTITLE0=Ain't Love Good, Ain't Love Proud (mono)
TTITLE1=Coming Back Strong (mono)
TTITLE2=Cry (mono)
TTITLE3=Ghetto Man (mono)
TTITLE4=Joyce Elaine (mono)
TTITLE5=Landslide (mono)
TTITLE6=Love Must Be Taboo (mono)
TTITLE7=Love Power (mono)
TTITLE8=(No Conception) No Sense Of Direction (mono)
TTITLE9=Poor Boy (mono)
TTITLE10=The Entertainer (mono)
TTITLE11=The Fugitive Kind (mono)
TTITLE12=(The Story Of) Woman, Love And A Man - Part 1 (mono)
TTITLE13=(The Story Of) Woman, Love And A Man - Part 2 (mono)
TTITLE14=They Call Me A Wrong Man (mono)
TTITLE15=This Heart Of Mine (mono)
TTITLE16=You Made Me A V.I.P. (mono)
TTITLE17=You're A Star (mono)
EXTD=
EXTT0=
EXTT1=
EXTT2=
EXTT3=
EXTT4=
EXTT5=
EXTT6=
EXTT7=
EXTT8=
EXTT9=
EXTT10=
EXTT11=
EXTT12=
EXTT13=
EXTT14=
EXTT15=
EXTT16=
EXTT17=
PLAYORDER=
